<svg id="Layer_1" data-name="Layer 1" xmlns="http://www.w3.org/2000/svg" viewBox="0 0 283.46 283.51"><defs><style>.cls-1{fill:#fff;}</style></defs><path class="cls-1" d="M438.9-70.3h18.83c3.35.43,6.72.79,10.07,1.28,28,4.09,52.74,15.23,73.9,34C567.39-12.31,583.05,16.07,588.4,50c.63,4,1.1,8,1.64,12V80.84c-.43,3.37-.78,6.74-1.29,10.1-5.66,37.37-23,68.16-52.68,91.6-31.42,24.83-67.41,34.6-107,29.25-37.45-5.06-68.22-22.81-91.7-52.42-25-31.47-34.59-67.51-29.43-107.26a136.23,136.23,0,0,1,33.85-74c22.75-25.73,51.15-41.41,85.15-46.77C430.9-69.28,434.91-69.75,438.9-70.3ZM564.15,71.41A116,116,0,0,0,448.43-44.4c-63.84-.13-116,52-115.95,115.85A116,116,0,0,0,448.2,187.26C512,187.39,564.17,135.3,564.15,71.41Z" transform="translate(-306.58 70.3)"/><path class="cls-1" d="M461.22,101.59c0,12.45,0,24.9,0,37.35,0,8.16-4.74,13.49-12.16,14a12.7,12.7,0,0,1-13.47-11.48c-.08-.91-.16-1.84-.16-2.76q0-37.2,0-74.42c0-7.66,3.64-12.56,10.26-14.07,7.35-1.68,15,3.68,15.3,11.25.37,10.77.19,21.57.24,32.36C461.23,96.43,461.22,99,461.22,101.59Z" transform="translate(-306.58 70.3)"/><path class="cls-1" d="M431.16,7a17.15,17.15,0,1,1,34.3.25A17.15,17.15,0,1,1,431.16,7Z" transform="translate(-306.58 70.3)"/></svg>