<svg id="Layer_1" data-name="Layer 1" xmlns="http://www.w3.org/2000/svg" viewBox="0 0 231.04 283.41"><defs><style>.cls-1{fill:#fff;}</style></defs><path class="cls-1" d="M153.69,24.66C172.31.12,198.2,0,198.2,0s3.85,23.07-14.65,45.3C163.8,69,141.34,65.15,141.34,65.15S137.13,46.49,153.69,24.66Z" transform="translate(-26.21)"/><path class="cls-1" d="M143.71,81.32c9.58,0,27.36-13.17,50.5-13.17,39.84,0,55.51,28.35,55.51,28.35s-30.65,15.67-30.65,53.69c0,42.9,38.18,57.68,38.18,57.68S230.56,283,194.51,283c-16.56,0-29.43-11.16-46.88-11.16-17.78,0-35.42,11.58-46.91,11.58-32.92,0-74.51-71.26-74.51-128.55,0-56.35,35.2-85.92,68.22-85.92C115.9,68.94,132.55,81.32,143.71,81.32Z" transform="translate(-26.21)"/></svg>