<svg id="Layer_1" data-name="Layer 1" xmlns="http://www.w3.org/2000/svg" viewBox="0 0 283.46 283.49"><defs><style>.cls-1{fill:#fff;}</style></defs><path class="cls-1" d="M-1258-116c-27.69-.73-50-9-71.12-21-35.54-20.32-64.54-48.34-91.47-78.65-20.47-23.06-37.88-48.18-47.89-77.72-8.07-23.8-10.38-47.8.64-71.36,8.42-18,21.71-30.75,42-34.23,10-1.71,18.83.83,25.57,9.07,9.71,11.87,19.29,23.86,29.43,35.34,7.22,8.19,8.09,17,4.37,26.55-5.87,15.06-16.77,26.47-28.37,37.22-8.53,7.91-9,8-2.22,17.33a350.57,350.57,0,0,0,80.77,80.21c7.9,5.6,7.61,4.75,14.64-1.92,9.72-9.21,19.68-18.41,30.68-25.95,11.45-7.85,24-9.48,36.66,2.57,9.6,9.1,20.08,17.32,30.56,25.43,11.64,9,14.18,20.54,9.91,33.75-7.32,22.61-24.29,34.81-46.36,40.64C-1247-117-1254.08-116.63-1258-116Z" transform="translate(1475.38 399.54)"/></svg>