<svg id="Layer_1" data-name="Layer 1" xmlns="http://www.w3.org/2000/svg" viewBox="0 0 281.72 204.92"><defs><style>.cls-1{fill:#fff;}</style></defs><path class="cls-1" d="M280.28,135c-2-4-51.15-96.58-139.45-96.61a121.77,121.77,0,0,0-14.29.83s-29.19.62-59.62,22.85h0c-.33.19-.66.39-1,.61C24.72,90.74,2.37,133.18,1.44,135a12.81,12.81,0,0,0,0,11.8c2.05,3.95,51.16,96.55,139.42,96.55,25.94,0,51.07-8.12,74.68-24.13A255.18,255.18,0,0,0,253,185.61a219.31,219.31,0,0,0,27.31-38.8A12.81,12.81,0,0,0,280.28,135ZM233.64,168.8C217.15,187.89,201.17,198,201.17,198c-19.31,13.1-39.59,19.73-60.31,19.73-61,0-101.61-57.9-113.26-76.83,7.19-11.76,25.46-38.44,52.76-57l.31-.21s21-16.56,48.56-19l.31,0A97.39,97.39,0,0,1,140.86,64c61,0,101.63,58,113.27,76.87A209,209,0,0,1,233.64,168.8Z" transform="translate(0 -38.4)"/><path class="cls-1" d="M157.94,160a25.63,25.63,0,0,1-35.27-37.2c.3-.28.59-.57.86-.87a12.81,12.81,0,0,0-19-17.13A51.21,51.21,0,0,0,175,179a12.66,12.66,0,0,0,1.28-1.15A12.8,12.8,0,0,0,157.94,160Z" transform="translate(0 -38.4)"/></svg>