<svg id="Layer_1" data-name="Layer 1" xmlns="http://www.w3.org/2000/svg" viewBox="0 0 281.72 281.72"><defs><style>.cls-1{fill:#fff;}</style></defs><path class="cls-1" d="M269.79,281.72a12.77,12.77,0,0,1-9.06-3.75L4.62,21.86A12.81,12.81,0,0,1,22.73,3.75L278.84,259.86a12.81,12.81,0,0,1-9,21.86Z" transform="translate(-0.87 0)"/><path class="cls-1" d="M141.73,243.31c-88.26,0-137.37-92.6-139.42-96.55a12.81,12.81,0,0,1,0-11.8c.93-1.79,23.28-44.23,64.51-72.27A12.81,12.81,0,1,1,81.23,83.87c-27.3,18.56-45.57,45.24-52.76,57C40.12,159.8,80.71,217.7,141.73,217.7c20.72,0,41-6.63,60.31-19.73a12.81,12.81,0,0,1,14.37,21.21C192.8,235.19,167.67,243.31,141.73,243.31ZM244.17,190a12.81,12.81,0,0,1-9.66-21.21A209.39,209.39,0,0,0,255,140.87C243.36,122,202.76,64,141.73,64a97.68,97.68,0,0,0-11.32.65,12.8,12.8,0,1,1-3-25.43,121.4,121.4,0,0,1,14.29-.83C230,38.42,279.1,131,281.15,135a12.81,12.81,0,0,1,0,11.8,219.22,219.22,0,0,1-27.31,38.8A12.79,12.79,0,0,1,244.17,190Z" transform="translate(-0.87 0)"/><path class="cls-1" d="M141.73,192.08a51.22,51.22,0,0,1-36.38-87.28,12.81,12.81,0,1,1,18.19,18A25.61,25.61,0,0,0,158.81,160,12.8,12.8,0,1,1,175.88,179,51.12,51.12,0,0,1,141.73,192.08Z" transform="translate(-0.87 0)"/></svg>