<svg id="Layer_1" data-name="Layer 1" xmlns="http://www.w3.org/2000/svg" viewBox="0 0 283.46 378.18"><defs><style>.cls-1{fill:#fff;}</style></defs><path class="cls-1" d="M-1110,247.7a56.56,56.56,0,0,1,29.33,15.87,103,103,0,0,1,20.74,31.15c8.78,19.72,13.41,40.47,15,62,.86,11.81,1.6,23.61-1.64,35.17-6.12,21.79-19.66,37.31-40.22,46.72l-2.46,1.11c0,6.94-.24,13.57,0,20.18q2.73,66,5.64,132c.61,14.14-7.61,27.23-20,31.81-13.88,5.1-27.89,1.09-36.87-10.68a31.14,31.14,0,0,1-6.2-20.76q2.85-71,5.87-142c.14-3.31.4-6.62.55-9.1-7.39-4.86-14.85-8.78-21.14-14.08-15.88-13.37-24.2-30.82-24.55-51.6-.47-27.84,4-54.85,15.47-80.41,7.28-16.28,16.73-31.1,32.51-40.45,5.37-3.18,11.75-4.67,17.66-6.93Z" transform="translate(1186 -247.7)"/><path class="cls-1" d="M-906.09,247.7q.89,28.41,1.77,56.83c.61,18.82,1.74,37.64,1.79,56.47.06,23.65-10.7,41.41-31.42,52.93-2.49,1.37-3.42,2.78-3.28,5.67,1.26,27.3,2.37,54.6,3.51,81.9q1.25,30.06,2.47,60.13c.42,10.21.92,20.41,1.33,30.62.86,21.09-17.35,37-37.81,33-15.09-2.92-26-16.77-25.33-32.63,1.55-37.75,3.25-75.5,4.85-113.25.85-20.17,1.57-40.34,2.45-60.51.1-2.28-.62-3.44-2.64-4.55-21.73-11.93-32.68-30.43-32.07-55.16.81-32.85,2.23-65.69,3.36-98.54.14-4.3.14-8.61.21-12.91h19.95q1.53,44.63,3.07,89.27c.25,7.25.58,14.5.72,21.76,0,2.34.78,3.33,3.23,3.18a52.19,52.19,0,0,1,8.48,0c3.46.36,4.32-1,4.42-4.31q1.74-55,3.72-109.92h23.64q1.53,44.63,3.07,89.27c.25,7.25.57,14.5.72,21.76,0,2.34.78,3.33,3.23,3.18a52.19,52.19,0,0,1,8.48,0c3.46.36,4.32-1,4.42-4.31q1.74-55,3.72-109.92Z" transform="translate(1186 -247.7)"/></svg>