<svg id="Layer_1" data-name="Layer 1" xmlns="http://www.w3.org/2000/svg" viewBox="0 0 283.41 283.41"><defs><style>.cls-1{fill:#4285f4;}.cls-2{fill:#34a853;}.cls-3{fill:#fbbc05;}.cls-4{fill:#ea4335;}.cls-5{fill:none;}</style></defs><path class="cls-1" d="M277.77,144.93a162.41,162.41,0,0,0-2.58-29H141.73v54.88H218a65.32,65.32,0,0,1-28.47,42.64v35.68h46C262.31,224.41,277.77,188.08,277.77,144.93Z" transform="translate(-0.02)"/><path class="cls-2" d="M141.73,283.41c38.26,0,70.34-12.62,93.78-34.27l-46-35.68c-12.62,8.5-28.72,13.65-47.79,13.65-36.84,0-68.15-24.86-79.35-58.35H15.23v36.58A141.56,141.56,0,0,0,141.73,283.41Z" transform="translate(-0.02)"/><path class="cls-3" d="M62.38,168.63a82.63,82.63,0,0,1,0-53.85V78.2H15.23a140.18,140.18,0,0,0,0,127l36.71-28.59Z" transform="translate(-0.02)"/><path class="cls-4" d="M141.73,56.42c20.87,0,39.42,7.22,54.23,21.13L236.54,37C211.94,14,180,0,141.73,0A141.44,141.44,0,0,0,15.23,78.2l47.15,36.58C73.58,81.29,104.89,56.42,141.73,56.42Z" transform="translate(-0.02)"/><path class="cls-5" d="M0,0H283.43V283.41H0Z" transform="translate(-0.02)"/></svg>