<svg id="Layer_1" data-name="Layer 1" xmlns="http://www.w3.org/2000/svg" viewBox="0 0 283.46 283.34"><defs><style>.cls-1{fill:#fff;}</style></defs><path class="cls-1" d="M364.38-181.17a62.37,62.37,0,0,1-2.86,6.21c-4.95,8.29-12.21,12.85-22,13.21-1.55.06-3.11,0-5.07,0v3.46c0,27.8.09,55.61-.12,83.41-.11,15.29-13.79,28.76-29.09,28.91-15.52.16-31,.07-46.57,0-5.14,0-8.5-3.69-8.5-9.2,0-21.34-.25-42.68.11-64,.14-8.41-5.37-16.21-15.76-15.85-7.85.27-15.71.23-23.56,0-10.18-.28-15.48,7.66-15.37,15.37.32,21.24.12,42.49.11,63.74,0,6.79-3.18,9.94-10,9.94H143.05c-18.42,0-31.54-13-31.59-31.55-.08-26.88,0-53.77,0-80.65v-3.3a84.56,84.56,0,0,1-9.56-.91c-9.87-2.05-16.55-8.05-19.59-17.56s-1-18.22,5.71-25.73c.79-.9,1.66-1.73,2.51-2.58q54.58-54.57,109.14-109.17c4.91-4.93,9.82-9.72,16.67-11.84h13.31c6.54,2.1,11.37,6.52,16.11,11.27q53,53.19,106.2,106.2c5.11,5.1,10.21,10.12,12.44,17.25ZM266.92-62.52H270q16.08,0,32.16,0c10,0,15.62-5.67,15.62-15.61q0-45.6,0-91.18c0-5.55,3.45-9,8.95-9.05,4.06,0,8.13.05,12.19,0a9.32,9.32,0,0,0,8.89-7c1.33-4.72-1.14-7.88-4.21-10.94q-56.28-56.22-112.52-112.47c-5.77-5.77-10.56-5.74-16.38.08L114.4-208.42c-4.64,4.64-9.32,9.23-13.9,13.93a8.85,8.85,0,0,0-2,10.45,9.12,9.12,0,0,0,8.77,5.65c3.6.06,7.21,0,10.81,0,6.83,0,10,3.16,10,10v90.62c0,9.43,5.75,15.24,15.14,15.26q16.49,0,33,0c.81,0,1.62-.08,2.74-.13V-66c.06-19.12-.15-38.25.25-57.36.3-13.78,12-26.56,25.68-27.66a214.7,214.7,0,0,1,34-.31c16.9,1.33,27.88,14.23,28,31.38.09,17.93,0,35.85,0,53.77Z" transform="translate(-80.91 329.2)"/></svg>