<svg id="Layer_1" data-name="Layer 1" xmlns="http://www.w3.org/2000/svg" viewBox="0 0 283.46 283.41"><defs><style>.cls-1{fill:#fff;}</style></defs><path class="cls-1" d="M622.48,345.62c-.72,4.91-1.28,9.84-2.18,14.71-7,38.17-26.47,68.52-57.91,91.15a133,133,0,0,1-66.67,25.14C446.87,481,405.79,464.8,373.25,428a132.13,132.13,0,0,1-32.94-72.65c-6.18-50.45,9.75-93.05,47.75-126.94,20.82-18.57,45.53-29.26,73.12-33.29,3.18-.47,6.37-.83,9.55-1.24h19.94c4.54.62,9.1,1.1,13.61,1.9,31.81,5.63,58.82,20.22,80.72,44a138.47,138.47,0,0,1,35.25,71c.89,5,1.49,10,2.23,14.95Zm-274.12-10c0,72.78,59.26,132.12,132.12,132.31S612.89,408.63,613,335.74s-59.37-132.37-132.3-132.41S348.36,262.77,348.36,335.66Z" transform="translate(-339.01 -193.9)"/><path class="cls-1" d="M448.77,280.48l-10,9.95a75.82,75.82,0,0,1,9.17,1.15c9.33,2.25,17,7.47,23.59,14.25,2,2,2.18,4.78.3,6.72-8,8.19-17.1,14.51-28.87,15.34-10.83.76-20.16-3.44-28.5-10.09-.63-.51-1.24-1.05-1.74-1.47l-9.82,9.91a93.29,93.29,0,0,1,9.87,1.48c9,2.28,16.37,7.43,22.79,14,1.94,2,2.3,4.69.54,6.49-9.4,9.59-20.1,16.74-34.28,15.53-9-.76-16.83-4.56-23.7-10.37l-1.8-1.48c-1.45,1.55-2.75,3.09-4.2,4.49-2.34,2.26-5.11,2.29-7.09.2s-1.79-4.68.39-6.89c1.41-1.44,3-2.67,4.39-3.85-2.4-3.5-4.66-6.32-6.41-9.43-8.58-15.18-7-29.63,3.48-43.3a67.16,67.16,0,0,1,5.07-5.86c3.45-3.59,5.69-3.61,9.09-.08,8.59,8.88,14.39,19.06,14.37,31.55l9.82-10a47.11,47.11,0,0,1-9.66-16.89c-4.2-12.77-.6-23.94,7-34.27a66.8,66.8,0,0,1,5.78-6.69c3-3,5.35-3,8.3,0,8.62,8.85,14.64,18.93,14.68,31.76,0,.14.18.28.14.22l9.89-9.79-1.51-1.85c-6.48-8.11-10.44-17.22-10-27.72.37-9.52,4.92-17.41,10.81-24.6a51.47,51.47,0,0,1,3.95-4.27c2.66-2.59,5.3-2.79,7.66,0,3.7,4.44,7,9.22,10.41,13.89a23.16,23.16,0,0,1,1.45,2.63c6.55-5.8,14.22-8.65,22.54-9.87a64.47,64.47,0,0,1,9.1-.67c3.58,0,5.42,2,5.41,5.56,0,11.55-2.64,22.28-10.2,31.22,4.25,2.92,8.48,5.76,12.6,8.73a27.76,27.76,0,0,1,4.05,3.77c1.92,2.1,2.08,4.74.14,6.73-7.83,8.05-16.82,14.26-28.35,15.23-10.94.93-20.36-3.25-28.8-9.94-.58-.45-1.13-.95-1.69-1.42C448.83,280.48,448.73,280.46,448.77,280.48Zm12.49,28.87c-14-12.74-30.35-11.1-41.43.18C432.86,321.35,448.21,321.28,461.26,309.35Zm-12.94-43.09c12.2-12.81,11.94-29.2.09-41.4C437.2,236.73,435.84,252.05,448.32,266.26Zm-23,79.08c-13.32-12.41-29.49-11.61-41.49,0C396.64,357.06,411.8,357.38,425.31,345.34Zm-12.93-43.25c12.36-12.43,11.79-30-.09-41.28C400.44,274,400.69,289.24,412.38,302.09Zm84.76-28.76c-13.6-12.36-29.45-11.4-41.39.13C468.64,285.5,484.61,285.24,497.14,273.33ZM376.47,296.64c-12.39,13.51-11.28,29.77.14,41.27C388.44,325.53,388.47,309.11,376.47,296.64Zm115-66.25a34.41,34.41,0,0,0-16.61,4.93c-4.54,2.74-8.39,5.73-7.85,12,.26,2.94-.84,6-1.27,8.67a107.27,107.27,0,0,1,10.91-1.19,7.07,7.07,0,0,0,5.21-1.92C488.06,246.84,490.93,239.35,491.44,230.39Z" transform="translate(-339.01 -193.9)"/><path class="cls-1" d="M522.15,409.94l-.92.3c-2.48,1-5.79,1.3-7.2,3.11-1.2,1.53-.2,4.77-.18,7.25.1,17.78-13.47,32.3-31.8,33.26a32.6,32.6,0,0,1-34-28.33,54.48,54.48,0,0,1,.05-9.89c.1-1.57-.12-2.39-1.73-3.11-4.22-1.87-7.28-2.82-11.33,1.72-6.71,7.54-18.12,8.4-27,3.68a23.81,23.81,0,0,1,6.59-44.43c16-3.25,30.3,10.48,28.09,27.35l9.08,3.58c1.12-1.56,2.07-3,3.16-4.38a32.41,32.41,0,0,1,18.91-11.65c1.63-.35,2.27-.92,2.08-2.5a2.53,2.53,0,0,1,0-.55c.72-4.84-.33-7.75-5.74-10-10.29-4.17-15.15-16.08-12.3-26.76s12.85-18.28,23.48-17.79c11.58.53,20.87,8.64,22.68,19.77A23.41,23.41,0,0,1,488,377c-2,.64-2.59,1.51-2.45,3.45.16,2.3-.72,5.15.36,6.75s4,1.62,6.07,2.37c7,2.52,11.58,6.36,17.75,14.84l4.45-1.71c1.53-.59,3.05-1.2,4.53-1.79-1.72-14.27,7.43-24.36,18-26.89a23.68,23.68,0,0,1,17.85,43.22C544.63,423.32,530.68,421.82,522.15,409.94Zm-17.91,10.74a23.54,23.54,0,1,0-23.53,23.55A23.58,23.58,0,0,0,504.24,420.68Zm37.91-9.56a14.07,14.07,0,0,0,.1-28.13,14.07,14.07,0,1,0-.1,28.13Zm-122.91,0a14.07,14.07,0,1,0-14-14A14,14,0,0,0,419.24,411.12Zm47.41-57a14.05,14.05,0,1,0,28.1.66,14.05,14.05,0,0,0-28.1-.66Z" transform="translate(-339.01 -193.9)"/><path class="cls-1" d="M556.67,364c-19.86,0-36.46-15.41-37.27-35.21-.21-5.12,1.29-10.36,2.25-15.49,2.89-15.37,1.08-30.05-6.11-44-.42-.82-.92-1.6-1.27-2.45-1.33-3.19.13-6.42,3.53-6.52a113.23,113.23,0,0,1,18.14.66,74.59,74.59,0,0,1,32.95,12.6c13.74,9.51,21.17,22.94,24.21,39.08,1.7,9,1.58,18-1.38,26.74C586.58,354.64,573.12,364.05,556.67,364Zm-30-94.3c.16.62.22,1,.34,1.3a78,78,0,0,1,2.76,49.58A25.32,25.32,0,0,0,530,335a27.75,27.75,0,0,0,28.09,19.41c12.42-.58,22.46-7.59,25.23-20.78a50.73,50.73,0,0,0,.65-17c-3.17-22.92-16.54-37.27-38.52-43.85A69,69,0,0,0,526.65,269.73Z" transform="translate(-339.01 -193.9)"/><path class="cls-1" d="M481.22,434.84c6.73,0,12.34-5.11,13.56-12.25.59-3.42-1-6.1-3.84-6.58s-5.08,1.29-5.59,4.74c-.42,2.94-2,4.35-4.86,4.67a4.79,4.79,0,0,0-4.57,4.95C476.07,433,478.22,434.86,481.22,434.84Z" transform="translate(-339.01 -193.9)"/><path class="cls-1" d="M575.56,322.9a90.09,90.09,0,0,1-1.34,9.1,16.45,16.45,0,0,1-11.38,12.14c-3,1-5.56-.21-6.5-2.91a4.59,4.59,0,0,1,3.08-6c4.32-1.5,6.11-4.66,6-8.89a89.35,89.35,0,0,0-1-11.77c-.52-3.43.48-5.95,3.21-6.65,3-.76,5.29.74,6.11,4.38S575,319.57,575.56,322.9Z" transform="translate(-339.01 -193.9)"/></svg>