<svg id="Layer_1" data-name="Layer 1" xmlns="http://www.w3.org/2000/svg" viewBox="0 0 283.46 283.5"><defs><style>.cls-1{fill:#fff;}</style></defs><path class="cls-1" d="M-1458.76-77.17h105.18a13.44,13.44,0,0,0,1.49.57c5.73,1.41,10.61,4.31,13.82,9.25,2,3.07,3.11,6.72,4.62,10.11V47.93c-.19.51-.42,1-.56,1.54-1.6,6-4,11.62-8.54,16.14q-66.43,66.4-132.87,132.82c-10.45,10.44-24.76,10.55-35.19.16q-49.38-49.23-98.54-98.67a28,28,0,0,1-6.39-10.14c-3.38-9.8-.33-18.22,6.86-25.4q66.06-66,132.16-132c3-3,7.14-5.09,11-7.23C-1463.65-76-1461.11-76.42-1458.76-77.17Zm54.16,47.38A23.47,23.47,0,0,0-1428-6.16a23.51,23.51,0,0,0,23.73,23.32A23.43,23.43,0,0,0-1381-6.34,23.43,23.43,0,0,0-1404.6-29.79Z" transform="translate(1617.11 77.17)"/></svg>