<svg id="Layer_1" data-name="Layer 1" xmlns="http://www.w3.org/2000/svg" viewBox="0 0 283.51 283.51"><defs><style>.cls-1{fill:#fff;}</style></defs><path class="cls-1" d="M141.73,0A141.76,141.76,0,1,0,283.48,141.76,141.76,141.76,0,0,0,141.73,0Zm0,39.62a48.27,48.27,0,0,1,48.29,48c.16,26.46-21.81,48.43-48.35,48.35a48.2,48.2,0,0,1,.06-96.39Zm69.46,184.22c-15.94,13.31-34.12,21.7-54.79,24.44-27.73,3.68-53.12-2.5-76.1-18.34a53.22,53.22,0,0,1-11.61-10.31c-5.43-6.88-4.36-15.06-2.42-22.92,5.5-22.34,24.58-37.06,48.09-37.25,9.2-.07,18.4,0,27.6,0,0,.17,0,.33,0,.49,11.37,0,22.83-.83,34.11.18,23.82,2.13,42.53,23.5,42.51,47.43A20.33,20.33,0,0,1,211.17,223.84Z" transform="translate(0.03)"/></svg>