<svg id="Layer_1" data-name="Layer 1" xmlns="http://www.w3.org/2000/svg" viewBox="0 0 283.46 265.61"><defs><style>.cls-1{fill:#fff;}</style></defs><path class="cls-1" d="M-41.33,23.48c.55-3.8,1-7.63,1.65-11.41q13.32-74.76,82.54-106c2.75-1.24,5.4-1.37,7.65.87s2,4.93.78,7.67A126.27,126.27,0,0,0,41-49.16c-3.09,24.61.5,48.23,11.47,70.43,18.16,36.78,47.65,59.64,87.62,68.47,23.76,5.25,47.26,3.11,70.09-5.52,1-.39,2-.84,3.09-1.21,2.65-.93,5.14-.74,7.08,1.49a5.72,5.72,0,0,1,.6,7c-4.29,7.51-8.18,15.34-13.25,22.29-21.5,29.43-50.38,47.8-86.14,54.5-36.61,6.87-70.83-.31-101.79-21C-12,126-31.21,96-38.93,58.64c-1-4.58-1.25-9.3-1.88-14-.11-.8-.34-1.59-.52-2.38ZM34.5-76.1C2-59.51-34.65-14.56-28.66,46A125.64,125.64,0,0,0,77.17,157.3c53,8.29,102.38-18.73,125.57-57.76-52.23,12.06-98.62,1.13-136.07-37.86S20.17-24.28,34.5-76.1Z" transform="translate(41.33 94.83)"/><path class="cls-1" d="M211.2-16.89c8.3,0,15.83,0,23.37,0a14.37,14.37,0,0,1,4.09.49,4.49,4.49,0,0,1,3.46,5c-.18,2.66-2,3.78-4.33,4.28a10.88,10.88,0,0,1-2.21.09H202.09c-.46,0-.93,0-1.39,0-2.59-.21-4.92-.94-6.08-3.56s-.06-4.81,1.7-6.78q11.06-12.37,22.11-24.78c1.27-1.43,2.44-3,4.16-5.05h-4.34c-5.63,0-11.26,0-16.88-.16-4.17-.12-5.7-1.36-5.66-4.12,0-2.94,2-4.85,5.86-4.88,10.51-.07,21,0,31.54.15,2.42,0,4.93.55,5.94,3.2s0,4.91-1.75,6.87C231.18-39.24,225-32.38,218.87-25.5Z" transform="translate(41.33 94.83)"/><path class="cls-1" d="M107.51-43.92c-5.23,0-10.46,0-15.7,0-2.11,0-4.24,0-6.35-.26s-3.94-1-3.94-3.68,1.28-4.45,3.8-5a10.22,10.22,0,0,1,2.2-.24c10.23,0,20.46,0,30.69.17,2.52,0,5.17.44,6.24,3.19s-.06,5.06-1.87,7.09Q111.17-29.84,99.73-17.08l-2.84,3.22h3.58c7.37.06,14.74,0,22.11.23,3.06.08,4.69,1.73,5,4.17a4.32,4.32,0,0,1-3.18,5.12,14.73,14.73,0,0,1-4.35.58c-10.51,0-21,0-31.53,0a23.25,23.25,0,0,1-2.76-.18C83.25-4.24,81-5.09,80.1-7.67s.07-4.64,1.82-6.56q8-8.77,16-17.65c3.37-3.75,6.7-7.55,10-11.33Z" transform="translate(41.33 94.83)"/><path class="cls-1" d="M155.06,16.74h8.8c3.87,0,7.75,0,11.62.09,2.8.1,4.31,1.66,4.24,4s-1.57,3.56-4.3,3.69c-1.29.06-2.58,0-3.87,0-7.93,0-15.86,0-23.79,0-2.23,0-4.39-.29-5.46-2.46s-.1-4.22,1.48-6q8.5-9.64,16.92-19.38c1.07-1.23,2.08-2.51,3.55-4.3-4.77,0-8.95,0-13.13,0-1.75,0-3.5-.05-5.24-.22s-2.89-1-2.95-3a3.53,3.53,0,0,1,2.8-3.89A12.88,12.88,0,0,1,149-15q10.38,0,20.75,0a26,26,0,0,1,3.31.23c4.72.6,6.17,4.06,3.05,7.84-3.52,4.27-7.33,8.29-11,12.42Z" transform="translate(41.33 94.83)"/></svg>