<svg id="Layer_1" data-name="Layer 1" xmlns="http://www.w3.org/2000/svg" viewBox="0 0 283.46 283.37"><defs><style>.cls-1{fill:#fff;}</style></defs><path class="cls-1" d="M-26.46,332.94c1.39-5.3,3.2-10.45,7.37-14.25,2.62-2.38,5.61-4.37,8-6.21-.89-4.59-2.48-9.19-2.54-13.82-.15-11,5.26-19.13,15.17-23.64s19.86-3.31,28.06,4.13c8.39,7.61,16.17,15.9,24.2,23.91.92.9,1.71,1.93,2.36,2.67l80.26-80.28a11.55,11.55,0,0,1-2.51-1.59q-11.4-11.28-22.71-22.66c-7.5-7.59-10.15-16.64-7-26.87s10.26-16.2,20.65-18.14a25.37,25.37,0,0,1,17.83,3.28c.44-.75.85-1.41,1.22-2.1a26.1,26.1,0,0,1,41.3-7.05c4.63,4.33,8.9,9.06,14,14.24,2.67-3,4.79-5.77,7.36-8.1a26.13,26.13,0,0,1,43.4,13.7c2,8.75-.29,16.66-6.34,23.29-2.34,2.57-5.13,4.72-8.22,7.52,5.25,5,10.08,9.33,14.5,14a25.58,25.58,0,0,1,1.39,33.85c-2.78,3.4-6.65,5.92-9.7,8.55.84,4.38,2.42,9,2.47,13.62.12,11-5.33,19.09-15.24,23.61s-19.52,3.09-27.88-4c-4.35-3.68-8.2-7.95-12.25-12-5-4.94-9.88-9.92-14.65-14.71L94.43,343.53c.39.41,1.06,1.14,1.75,1.84,7.88,7.89,15.92,15.64,23.62,23.71,14.08,14.75,7.75,38.4-11.62,43.76a26.14,26.14,0,0,1-20.4-2.64,14.94,14.94,0,0,0-.92,1.37c-4,7.74-10.16,12.71-18.8,14.43a4.43,4.43,0,0,0-1,.46h-8.3c-12.26-2.61-18.66-13-28.05-21.26-2.59,2.95-4.87,6.17-7.75,8.69A24.5,24.5,0,0,1,.3,419.46a26.12,26.12,0,0,1-13.5-43.28c2.33-2.58,5.13-4.74,8.25-7.59-2.29-2-4.07-3.46-5.71-5.06-6.64-6.44-13.76-12.57-15.8-22.29ZM129,172.44a9.43,9.43,0,0,0-8.24,5.23,9,9,0,0,0,.72,9.91,26.91,26.91,0,0,0,3,3.25l85.68,85.67c4.83,4.82,10.46,5.19,14.61,1s3.7-9.77-1.13-14.61c-2.08-2.1-4.17-4.18-6.25-6.27q-40.22-40.19-80.39-80.4A11.24,11.24,0,0,0,129,172.44ZM13,289.22a9.87,9.87,0,0,0-9.35,6C2,299.34,3,302.94,6.11,306Q50,349.95,94,393.85c4.28,4.29,10.06,4.41,14,.42s3.78-9.64-.53-14c-4-4.08-8.08-8.1-12.12-12.14Q57.75,330.56,20.2,293C18,290.81,15.62,289.33,13,289.22Zm135.84-51L69.41,317.62l13.17,13.12,79.25-79.26c-2.38-2.28-4.89-4.57-7.28-7C152.49,242.41,150.56,240.19,148.79,238.26Zm81.51,4.63c4.69-.62,8.32-3.37,9.53-7.56s-.48-7.48-3.41-10.4q-26.32-26.27-52.61-52.58c-3.26-3.26-6.45-6.58-9.8-9.75-4.13-3.89-9.81-3.76-13.61.15a9.41,9.41,0,0,0,.18,13.41Q192.2,207.89,224,239.45C225.62,241.07,228.17,241.76,230.3,242.89ZM72.69,400.33a9.49,9.49,0,0,0-3.07-7.16L6.86,330.42c-.33-.32-.66-.64-1-.93a9.49,9.49,0,0,0-13.18,1c-3.67,4.09-3.32,9.47,1,13.82q31,31,62,62a14.45,14.45,0,0,0,1.86,1.65,9.07,9.07,0,0,0,9.9.83A9.24,9.24,0,0,0,72.69,400.33ZM5.9,380.46c-2.36,2.41-4.78,4.68-7,7.15A9.52,9.52,0,0,0-1,400.23a9.25,9.25,0,0,0,12.49,1.48c2.93-2.28,5.44-5.1,8.06-7.59ZM224.64,189c2.24-2.26,4.6-4.46,6.75-6.85a9.53,9.53,0,0,0-13-13.87c-2.65,2.24-5,4.87-7.29,7.18Z" transform="translate(26.46 -143.08)"/></svg>